<svg id="Capa_1" data-name="Capa 1" xmlns="http://www.w3.org/2000/svg" viewBox="0 0 3836.36 3836.36"><defs><style>.cls-1{fill:#85c1ea;}.cls-2{fill:#1f2244;}.cls-3{fill:#009fe3;}.cls-4{fill:#2d3769;}.cls-5{fill:#3c4c8f;}</style></defs><circle class="cls-1" cx="1918.18" cy="1918.18" r="1918.18"/><path class="cls-2" d="M2030.87,2279l-9.72-35.63-25.67-108.18-110.8-467c191.66-102.45,381-200.3,550.05-281.89,43.66-21.08,159.53-67.59,310.56-67.59,411.87,0,745.75,333.89,745.75,745.75s-333.88,745.75-745.75,745.75c-350.18,0-644-241.37-724.14-566.82" transform="translate(-81.36 -81.82)"/><path class="cls-3" d="M1886.53,1669.55" transform="translate(-81.36 -81.82)"/><path class="cls-4" d="M1884.68,1668.17c-45.31-67.35-175.08-242-409.13-316-22.59-7.14-118.51-33.53-221.75-33.53-411.87,0-745.75,333.89-745.75,745.75a733.88,733.88,0,0,0,85.08,343.32l1291.72-738.85Z" transform="translate(-81.36 -81.82)"/><path class="cls-5" d="M1884.85,1668.91,593.13,2407.76c126.51,240,379.7,403.1,660.67,402.43,373.63-.89,698.23-291.18,741.68-675.67Z" transform="translate(-81.36 -81.82)"/></svg>
